<svg width="48" height="48" viewBox="0 0 48 48" fill="none" xmlns="http://www.w3.org/2000/svg">
<path d="M38.6538 39C38.5336 39 38.4181 38.9856 38.2978 38.9616L8.33857 32.3406C7.60246 32.1774 7.07322 31.5388 7.05398 30.785L6.50069 10.6821C6.48626 10.1875 6.69795 9.717 7.07322 9.39532C7.4485 9.07363 7.94406 8.9392 8.4348 9.02562L40.1501 14.7391C40.9632 14.888 41.5453 15.6178 41.4972 16.4436L40.2896 37.4492C40.2607 37.9293 40.025 38.371 39.6401 38.6591C39.3514 38.8752 39.005 38.9904 38.649 38.9904L38.6538 39ZM7.46293 10.6581L8.01623 30.761C8.02585 31.0731 8.24234 31.3372 8.54545 31.4044L38.5047 38.0253C38.7019 38.0686 38.904 38.0253 39.0628 37.9053C39.2215 37.7853 39.3178 37.6028 39.3322 37.406L40.5398 16.4004C40.559 16.0595 40.3185 15.757 39.9817 15.6946L8.26639 9.98107C8.06432 9.94266 7.86226 10.0003 7.70349 10.1347C7.54953 10.2692 7.46293 10.4612 7.46775 10.6677L7.46293 10.6581Z" fill="#2C2A33"></path>
<path d="M22.4353 28.3123C22.036 28.3123 21.6462 28.1683 21.3383 27.8946L21.2854 27.837L6.96254 10.1107C6.79414 9.90421 6.82782 9.60173 7.0347 9.43369C7.24158 9.26564 7.54469 9.29925 7.71308 9.50571L22.0119 27.1984C22.1995 27.3473 22.4545 27.3905 22.6807 27.304L40.2848 15.5217C40.5061 15.3729 40.8044 15.4305 40.9535 15.6513C41.1027 15.8722 41.0449 16.1699 40.8236 16.3187L23.1041 28.1683C22.8924 28.2643 22.6662 28.3075 22.4401 28.3075L22.4353 28.3123Z" fill="#2C2A33"></path>
<path d="M7.91039 26.5695C7.71794 26.5695 7.53512 26.4494 7.45814 26.2574C7.36191 26.0077 7.49182 25.7341 7.73719 25.638L17.2056 22.0707C17.4558 21.9747 17.73 22.1043 17.8262 22.3492C17.9225 22.5988 17.7926 22.8725 17.5472 22.9685L8.07877 26.5359C8.02103 26.5551 7.96331 26.5647 7.91039 26.5647V26.5695Z" fill="#2C2A33"></path>
<path d="M39.7652 34.0498C39.6593 34.0498 39.5535 34.0162 39.462 33.9442L28.1942 24.865C27.9874 24.697 27.9537 24.3945 28.1221 24.188C28.2905 23.9816 28.5936 23.948 28.8005 24.116L40.0683 33.1952C40.2751 33.3633 40.3088 33.6657 40.1404 33.8722C40.0442 33.9922 39.9047 34.0498 39.7652 34.0498Z" fill="#2C2A33"></path>
</svg>