<svg width="48" height="48" viewBox="0 0 48 48" fill="none" xmlns="http://www.w3.org/2000/svg">
<path d="M24.4283 40.369C19.3978 40.369 16.3757 38.3113 14.7005 36.5191C12.2447 33.8925 11.0549 30.0664 11.5118 26.2781C11.9687 22.5041 13.9295 19.3939 16.8992 17.7345C19.3122 16.388 23.5241 15.3876 29.8777 18.2797C34.2609 20.2758 37.4401 27.179 36.4169 32.4796C35.8838 35.239 33.7422 39.9328 25.3754 40.3453C25.0518 40.3595 24.7377 40.369 24.4283 40.369ZM22.2391 17.3599C20.4401 17.3599 18.7982 17.7582 17.3656 18.5594C14.6671 20.0671 12.8777 22.9214 12.4589 26.3872C12.0353 29.9052 13.1347 33.4468 15.4001 35.8696C17.7511 38.3824 21.1873 39.6009 25.3326 39.3923C32.6666 39.032 34.8987 35.3338 35.4841 32.2947C36.5073 26.9846 33.0378 20.7546 29.4827 19.1331C26.8793 17.9478 24.4379 17.3504 22.2391 17.3504V17.3599Z" fill="#2C2A33"></path>
<path d="M27.5027 18.0474C27.4932 17.9479 27.2648 15.563 24.7805 15.0605C22.358 14.5721 21.6679 16.9617 21.6394 17.0612L20.7208 16.81C21.0397 15.6531 22.339 13.6002 24.9661 14.1312C27.5265 14.648 28.3642 16.8716 28.4498 17.9716L27.5027 18.0427V18.0474Z" fill="#2C2A33"></path>
<path d="M21.7108 16.1746C14.9146 14.5816 11.5974 6.98142 11.4594 6.65902L11.1786 6H17.9129L17.9319 6.45515C18.0985 10.6701 23.8096 14.0838 23.8667 14.1169L23.3813 14.9324C23.1338 14.7902 17.5465 11.4524 17.0134 6.94824H12.654C13.6153 8.8068 16.7279 14.0363 21.9297 15.2548L21.7108 16.1794V16.1746Z" fill="#2C2A33"></path>
<path d="M19.136 35.6515C18.8124 35.6515 18.5126 35.4714 18.3603 35.1822L17.5655 33.665C17.4418 33.4279 17.4322 33.1529 17.5417 32.9111C17.6464 32.6693 17.8558 32.4892 18.1128 32.418L23.5383 30.934C23.4717 26.9704 23.3099 23.8886 23.1433 23.2959C22.8435 23.1727 21.6108 23.1537 19.2265 23.5757C18.9742 23.6231 18.7125 23.552 18.5126 23.386C18.3127 23.2201 18.1985 22.9735 18.1985 22.7175V20.8353C18.1985 20.5934 18.2984 20.3611 18.4793 20.1952C18.6554 20.0293 18.8981 19.9439 19.1408 19.9629L28.2309 20.6124C28.5593 20.6361 28.8401 20.8353 28.9734 21.1339L29.4874 22.3145C29.6016 22.58 29.5826 22.8835 29.4255 23.1253C29.2732 23.3671 29.0067 23.5235 28.7211 23.533L26.0703 23.6468L26.6937 30.8677L31.196 31.3892C31.6386 31.4413 31.9717 31.8159 31.9717 32.2568V33.8546C31.9717 34.3098 31.6148 34.6891 31.1626 34.727L19.2074 35.6563C19.2074 35.6563 19.1598 35.6563 19.136 35.6563V35.6515ZM18.4507 33.3046L19.1789 34.6986L31.0151 33.7788V32.3185L26.5176 31.7969C26.1036 31.7495 25.7799 31.4176 25.7466 31.0052L25.1136 23.6468C25.0946 23.4097 25.1708 23.1727 25.3278 22.9973C25.4849 22.8171 25.7133 22.7128 25.9465 22.7033L28.5641 22.5942L28.1072 21.5559L19.1456 20.9159V22.6274C23.5003 21.8736 23.8239 22.5184 23.9762 22.8266C24.2951 23.4761 24.4331 27.6152 24.4902 30.9815C24.4949 31.375 24.2332 31.7306 23.8477 31.8349L18.4555 33.3141L18.4507 33.3046Z" fill="#2C2A33"></path>
<path d="M28.0358 17.2698L27.9216 16.3264C35.0176 15.4729 36.7262 9.31884 37.0832 7.45081H33.7755C32.8379 13.548 26.9269 15.6815 26.6699 15.7716L26.3558 14.8755C26.4129 14.8566 32.2287 12.742 32.8855 6.92452L32.9331 6.50256H38.173L38.1159 7.02883C38.1064 7.11891 37.0023 16.1889 28.0358 17.2698Z" fill="#2C2A33"></path>
<path d="M7 32.29L7.09043 34.6416L11.1167 33.755L11.0025 33.0249L7 32.29Z" fill="#2C2A33"></path>
<path d="M7.29504 36.8084L8.55624 38.7997L11.5974 36.0308L11.1357 35.4572L7.29504 36.8084Z" fill="#2C2A33"></path>
<path d="M9.09412 40.6962L11.0644 42L12.7016 38.2307L12.0448 37.8989L9.09412 40.6962Z" fill="#2C2A33"></path>
<path d="M41 25.0786L40.8382 22.727L36.8405 23.7369L36.9785 24.4575L41 25.0786Z" fill="#2C2A33"></path>
<path d="M40.5716 20.5698L39.2533 18.6164L36.2931 21.4753L36.7738 22.0348L40.5716 20.5698Z" fill="#2C2A33"></path>
<path d="M38.6584 16.7389L36.65 15.4872L35.1223 19.3039L35.7934 19.6215L38.6584 16.7389Z" fill="#2C2A33"></path>
</svg>